<svg width="186" height="256" viewBox="0 0 186 256" fill="none" xmlns="http://www.w3.org/2000/svg">
<path d="M123.195 250.608C123.402 252.107 124.146 253.48 125.288 254.471C126.431 255.463 127.894 256.006 129.407 256H176.739C179.038 255.991 181.24 255.074 182.865 253.448C184.491 251.823 185.408 249.62 185.416 247.321V79.098C185.416 76.7931 184.503 74.5822 182.877 72.9493C181.25 71.3164 179.043 70.3947 176.739 70.386H129.407C127.919 70.3739 126.475 70.8939 125.336 71.8523C124.197 72.8107 123.438 74.1444 123.195 75.6132C121.943 82.7876 118.202 89.2904 112.628 93.9767C107.054 98.663 100.006 101.232 92.7251 101.232C85.4437 101.232 78.3957 98.663 72.8221 93.9767C67.2485 89.2904 63.5066 82.7876 62.2553 75.6132C62.0001 74.1502 61.2373 72.824 60.101 71.8679C58.9648 70.9119 57.5279 70.3871 56.043 70.386H8.67847C6.37404 70.3947 4.16697 71.3164 2.54056 72.9493C0.914158 74.5822 0.000976883 76.7931 0.00099329 79.098V247.156C-0.0164068 248.309 0.194955 249.453 0.622836 250.523C1.05072 251.593 1.68661 252.568 2.4937 253.39C3.30078 254.213 4.263 254.867 5.32464 255.315C6.38628 255.763 7.52623 255.996 8.67847 256H56.043C57.5279 255.999 58.9648 255.474 60.101 254.518C61.2373 253.562 62.0001 252.236 62.2553 250.773C63.5066 243.598 67.2485 237.096 72.8221 232.409C78.3957 227.723 85.4437 225.154 92.7251 225.154C100.006 225.154 107.054 227.723 112.628 232.409C118.202 237.096 121.943 243.598 123.195 250.773V250.608ZM57.8179 202.38C56.9462 202.38 56.1102 202.034 55.4937 201.417C54.8773 200.801 54.531 199.965 54.531 199.093V180.814C54.5312 180.237 54.7362 179.68 55.1094 179.24C55.4827 178.8 55.9999 178.508 56.5689 178.414C59.3238 177.928 61.8195 176.487 63.6176 174.344C65.4157 172.201 66.4013 169.492 66.4013 166.694C66.4013 163.896 65.4157 161.188 63.6176 159.045C61.8195 156.901 59.3238 155.46 56.5689 154.974C55.9999 154.881 55.4827 154.588 55.1094 154.148C54.7362 153.709 54.5312 153.151 54.531 152.574V134.361C54.531 133.489 54.8773 132.653 55.4937 132.037C56.1102 131.42 56.9462 131.074 57.8179 131.074H122.472C123.343 131.074 124.179 131.42 124.796 132.037C125.412 132.653 125.759 133.489 125.759 134.361V152.574C125.76 153.146 125.559 153.7 125.193 154.139C124.826 154.578 124.317 154.874 123.754 154.974C120.999 155.46 118.503 156.901 116.705 159.045C114.907 161.188 113.921 163.896 113.921 166.694C113.921 169.492 114.907 172.201 116.705 174.344C118.503 176.487 120.999 177.928 123.754 178.414C124.317 178.515 124.826 178.81 125.193 179.249C125.559 179.688 125.76 180.242 125.759 180.814V199.027C125.759 199.899 125.412 200.735 124.796 201.352C124.179 201.968 123.343 202.315 122.472 202.315L57.8179 202.38Z" fill="#3E7BFA"/>
<path d="M134.305 0H51.5073C49.2756 0 47.1354 0.886691 45.5573 2.46501C43.9793 4.04333 43.0928 6.18399 43.0928 8.41608V57.1702H53.6438C55.856 57.1706 57.9801 56.303 59.5596 54.7539C61.1392 53.2048 62.0481 51.0978 62.0912 48.8856V27.0235C62.0868 25.9171 62.3015 24.8207 62.7228 23.7977C63.1442 22.7746 63.7638 21.8451 64.546 21.0627C65.3283 20.2804 66.2576 19.6606 67.2805 19.2392C68.3033 18.8178 69.3995 18.6031 70.5057 18.6074H115.306C116.413 18.6031 117.509 18.8178 118.532 19.2392C119.555 19.6606 120.484 20.2804 121.266 21.0627C122.048 21.8451 122.668 22.7746 123.089 23.7977C123.511 24.8207 123.725 25.9171 123.721 27.0235V48.8856C123.721 49.9951 123.939 51.0938 124.364 52.1188C124.789 53.1439 125.411 54.0753 126.195 54.8599C126.98 55.6444 127.911 56.2668 128.936 56.6914C129.961 57.116 131.059 57.3345 132.168 57.3345H142.719V8.41608C142.719 6.18399 141.833 4.04333 140.255 2.46501C138.677 0.886691 136.537 0 134.305 0Z" fill="#3E7BFA"/>
</svg>
